<svg width="50" height="42" viewBox="0 0 50 42" fill="none" xmlns="http://www.w3.org/2000/svg">
<g clip-path="url(#clip0_1_6645)">
<path d="M17.3682 8.55797H19.0673L18.2126 6.0271L17.3682 8.55797Z" fill="#EEF1E4"/>
<path d="M13.8173 19.452C14.3871 19.452 14.8526 19.2786 15.2112 18.9341C15.5724 18.5897 15.7505 18.1228 15.7505 17.5386C15.7505 16.9237 15.575 16.4466 15.2214 16.1073C14.8704 15.7705 14.4024 15.5996 13.8173 15.5996C13.2323 15.5996 12.7668 15.7731 12.4132 16.1175C12.0622 16.4645 11.8867 16.9441 11.8867 17.559C11.8867 18.1739 12.0648 18.6076 12.4234 18.9443C12.7846 19.2811 13.2476 19.452 13.8173 19.452Z" fill="#EEF1E4"/>
<path d="M13.8169 22.1564C13.1123 22.1564 12.5451 22.3477 12.1102 22.7304C11.6777 23.1131 11.459 23.6438 11.459 24.3173C11.459 24.9475 11.6726 25.4679 12.1 25.871C12.5273 26.2767 13.0996 26.4782 13.8195 26.4782C14.5393 26.4782 15.104 26.2767 15.5161 25.871C15.9281 25.4654 16.1342 24.9475 16.1342 24.3173C16.1342 23.6871 15.9205 23.1309 15.4932 22.7406C15.0658 22.3503 14.5088 22.1538 13.8195 22.1538L13.8169 22.1564Z" fill="#EEF1E4"/>
<path d="M26.8476 21.6384C26.204 21.6384 25.6673 21.8298 25.2426 22.2125C24.8152 22.5952 24.6016 23.1411 24.6016 23.8453C24.6016 24.5494 24.8 25.1286 25.1968 25.5342C25.5936 25.9399 26.1583 26.144 26.8934 26.144C27.5522 26.144 28.0736 25.945 28.4552 25.547C28.8367 25.149 29.0275 24.6056 29.0275 23.9142C29.0275 23.2228 28.8418 22.6538 28.4653 22.2456C28.0914 21.84 27.5522 21.6384 26.8476 21.6384Z" fill="#EEF1E4"/>
<path d="M43.702 16.8675C42.359 16.8675 41.1151 17.291 40.0926 18.0105V17.6329C40.1028 17.3778 40.1129 17.1252 40.1129 16.8675H40.0926V0.0571289H0.020349V16.8675H0C0 17.1226 0.0101745 17.3778 0.020349 17.6303V18.0998H0.0432416C0.638449 27.9911 8.35835 35.9511 18.1233 36.89H0.020349V41.5231H40.0926V36.89H21.9922C29.0177 36.2164 34.9799 31.9048 37.9992 25.8582C39.0039 28.009 41.1787 29.5015 43.7045 29.5015C47.1817 29.5015 50.0026 26.6746 50.0026 23.1845C50.0026 19.6943 47.1842 16.8675 43.7045 16.8675H43.702ZM28.1376 4.16469H32.3625V5.51432H29.8189V6.91242H31.4748V8.21357H29.8189V9.73158H32.3625V11.0812H28.1376V4.16469ZM22.7629 4.16469H27.2524V5.51432H24.4417V6.97365H26.5453V8.28501H24.4417V11.0838H22.7629V4.16724V4.16469ZM8.19301 5.78475C8.48807 5.24899 8.90014 4.83313 9.42667 4.53463C9.9532 4.23613 10.551 4.0856 11.2199 4.0856C12.039 4.0856 12.741 4.30246 13.3235 4.73618C13.906 5.1699 14.2952 5.76179 14.4936 6.50932H12.6469C12.5095 6.22102 12.3137 5.99906 12.0619 5.84854C11.81 5.69801 11.5226 5.62147 11.2021 5.62147C10.6832 5.62147 10.2661 5.80261 9.94557 6.16234C9.62507 6.52463 9.46482 7.00682 9.46482 7.61147C9.46482 8.21612 9.62507 8.69832 9.94557 9.0606C10.2661 9.42288 10.6858 9.60147 11.2021 9.60147C11.5226 9.60147 11.81 9.52493 12.0619 9.37441C12.3137 9.22388 12.5095 9.00447 12.6469 8.71362H14.4936C14.2977 9.4637 13.9085 10.053 13.3235 10.4817C12.741 10.9128 12.039 11.1271 11.2199 11.1271C10.5535 11.1271 9.9532 10.9766 9.42667 10.6781C8.90014 10.3796 8.48807 9.96375 8.19301 9.43053C7.89795 8.89732 7.75296 8.29011 7.75296 7.60637C7.75296 6.92263 7.90049 6.31287 8.19301 5.77965V5.78475ZM19.0721 27.2589C18.5328 28.0319 17.8028 28.6213 16.882 29.0295C15.9612 29.4351 14.9387 29.6367 13.8144 29.6367C12.6901 29.6367 11.6701 29.4351 10.7494 29.0295C9.82856 28.6238 9.09854 28.0345 8.55929 27.2589C8.02005 26.4858 7.75042 25.5648 7.75042 24.4984C7.75042 23.5672 7.96663 22.761 8.40159 22.0772C8.834 21.3935 9.44956 20.8654 10.2432 20.4878C8.834 19.7377 8.12942 18.559 8.12942 16.9517C8.12942 16.1404 8.34054 15.4005 8.76024 14.7321C9.17994 14.0637 9.81584 13.5304 10.668 13.1324C11.5201 12.7344 12.568 12.5354 13.8119 12.5354C15.0557 12.5354 16.1011 12.7344 16.9456 13.1324C17.7926 13.5304 18.4235 14.0637 18.8457 14.7321C19.2654 15.4005 19.474 16.1404 19.474 16.9517C19.474 17.763 19.2832 18.4697 18.9017 19.0693C18.5201 19.6688 18.0063 20.1434 17.3628 20.4878C18.1716 20.8781 18.7923 21.4165 19.2272 22.0976C19.6597 22.7814 19.8784 23.5825 19.8784 24.4984C19.8784 25.5648 19.6088 26.4858 19.0695 27.2589H19.0721ZM19.4969 9.85915H16.9227L16.5107 11.0812H14.753L17.2483 4.16469H19.1942L21.6895 11.0812H19.9115L19.4994 9.85915H19.4969ZM31.9784 26.7741C31.5358 27.6008 30.8923 28.2462 30.0453 28.7106C29.1983 29.1774 28.1986 29.4096 27.0463 29.4096C24.7393 29.4096 23.1368 28.685 22.2389 27.2359C21.341 25.7868 20.8908 23.7024 20.8908 20.9827C20.8908 18.1278 21.3664 16.0077 22.3178 14.6173C23.2691 13.2294 24.7927 12.5329 26.8886 12.5329C28.0104 12.5329 28.9592 12.7549 29.7299 13.1988C30.5006 13.6427 31.0856 14.2244 31.4824 14.9464C31.8792 15.6659 32.1158 16.4542 32.1896 17.3114H28.6183C28.4988 16.7553 28.2902 16.3394 27.99 16.0613C27.6899 15.7832 27.2626 15.6429 26.708 15.6429C25.8559 15.6429 25.2429 16.0154 24.8665 16.7578C24.4925 17.5002 24.2967 18.6764 24.2814 20.2837C24.6096 19.7581 25.0878 19.3448 25.7084 19.0438C26.329 18.7427 27.0133 18.5947 27.7637 18.5947C29.2313 18.5947 30.4116 19.0616 31.3018 19.9928C32.1946 20.9241 32.6372 22.2227 32.6372 23.8912C32.6372 24.9882 32.4185 25.9501 31.9759 26.7767L31.9784 26.7741ZM43.6995 26.4782C41.8833 26.4782 40.4131 25.001 40.4131 23.1819C40.4131 21.3629 41.8858 19.8857 43.6995 19.8857C45.5131 19.8857 46.9858 21.3629 46.9858 23.1819C46.9858 25.001 45.5131 26.4782 43.6995 26.4782Z" fill="#EEF1E4"/>
</g>
<defs>
<clipPath id="clip0_1_6645">
<rect width="50" height="41.4634" fill="white" transform="translate(0 0.0571289)"/>
</clipPath>
</defs>
</svg>
